<?xml version="1.0" encoding="UTF-8"?>
<svg xmlns="http://www.w3.org/2000/svg" xmlns:xlink="http://www.w3.org/1999/xlink" viewBox="0 0 24 24" width="38px" height="38px">
<g id="surface16366705">
<path style=" stroke:none;fill-rule:nonzero;fill: hsl(245, 69%, 75%);fill-opacity:1;" d="M 5 2 C 3.898438 2 3 2.898438 3 4 L 3 20 C 3 21.101562 3.898438 22 5 22 L 17 22 C 18.101562 22 19 21.101562 19 20 L 19 15 L 17 15 L 17 20 L 5 20 L 5 4 L 17 4 L 17 9 L 19 9 L 19 4 C 19 2.898438 18.101562 2 17 2 Z M 14 8.25 L 9 12 L 14 15.75 L 14 13 L 22 13 L 22 11 L 14 11 Z M 14 8.25 "/>
</g>
</svg>
