<?xml version="1.0" encoding="UTF-8"?>
<svg xmlns="http://www.w3.org/2000/svg" xmlns:xlink="http://www.w3.org/1999/xlink" viewBox="0 0 32 32" width="38px" height="38px">
<g id="surface29436788">
<path style=" stroke:none;fill-rule:nonzero;fill: hsl(245, 69%, 75%);fill-opacity:1;" d="M 16 4 C 12.425781 4 9.1875 5.59375 7 8.113281 L 7 5 L 5 5 L 5 12 L 12 12 L 12 10 L 8.054688 10 C 9.859375 7.585938 12.757812 6 16 6 C 20.289062 6 23.808594 8.628906 25.265625 12.363281 L 27.132812 11.636719 C 25.390625 7.171875 21.113281 4 16 4 Z M 6.734375 19.636719 L 4.867188 20.363281 C 6.609375 24.828125 10.886719 28 16 28 C 19.601562 28 22.8125 26.390625 25 23.917969 L 25 27 L 27 27 L 27 20 L 20 20 L 20 22 L 23.96875 22 C 22.15625 24.386719 19.277344 26 16 26 C 11.710938 26 8.191406 23.371094 6.734375 19.636719 Z M 6.734375 19.636719 "/>
</g>
</svg>
